<?xml version="1.0" encoding="UTF-8"?>
<svg id="Livello_1" xmlns="http://www.w3.org/2000/svg" version="1.1" viewBox="0 0 2000 1117">
  <!-- Generator: Adobe Illustrator 29.0.0, SVG Export Plug-In . SVG Version: 2.1.0 Build 186)  -->
  <defs>
    <style>
      .st0 {
        fill: #FFFFFF;
      }
    </style>
  </defs>
  <path class="st0" d="M567.09,513.09c85.89,0,150.63-22.36,194.24-67.08,43.61-44.72,65.42-107.8,65.42-189.23s-21.8-145.07-65.42-189.57C717.73,22.7,652.76.45,566.43.45h-206.92v330.55h136.17V111.26h72.09c78.77,0,118.14,48.5,118.14,145.51s-39.16,145.51-117.48,145.51H185.29l115.99-115.99-32.28-32.28c-25.45-25.45-66.7-25.45-92.15,0L19.81,411.06c-25.75,25.75-25.75,67.5,0,93.25l196.17,196.17c25.45,25.45,66.7,25.45,92.15,0l32.27-32.28-155.11-155.11h381.8Z"/>
  <rect class="st0" x="1445.56" y=".45" width="136.17" height="512.64"/>
  <polygon class="st0" points="1083.65 604.61 913.41 1117.22 1052.93 1117.22 1158.35 755.45 1173.75 695.39 1188.39 755.45 1295.84 1117.22 1442.09 1117.22 1264.52 604.61 1083.65 604.61"/>
  <polygon class="st0" points="824.14 604.6 721.01 952.13 615.21 604.6 467.03 604.6 637.24 1117.24 804.11 1117.24 966.98 604.6 824.14 604.6"/>
  <path class="st0" d="M1980.69,613.38l-196.17-196.17c-25.44-25.45-66.7-25.45-92.15,0l-32.27,32.28,155.11,155.11h-310.38v512.64h136.17v-401.83h174.21l-115.99,115.99,32.28,32.28c25.45,25.45,66.7,25.45,92.15,0l157.05-157.05c25.75-25.75,25.75-67.5,0-93.25Z"/>
  <polygon class="st0" points="1099.11 151.31 1114.46 91.23 1129.15 151.31 1236.62 513.08 1382.79 513.08 1205.24 .45 1024.36 .45 854.14 513.08 993.65 513.08 1099.11 151.31"/>
</svg>
