<?xml version="1.0" encoding="UTF-8"?>
<svg xmlns="http://www.w3.org/2000/svg" version="1.1" xmlns:xlink="http://www.w3.org/1999/xlink" viewBox="0 0 2560 1440">
  <!-- Generator: Adobe Illustrator 29.0.0, SVG Export Plug-In . SVG Version: 2.1.0 Build 186)  -->
  <defs>
    <style>
      .st0 {
        isolation: isolate;
      }

      .st1, .st2, .st3 {
        display: none;
      }

      .st1, .st4 {
        fill: #fb6068;
      }

      .st5 {
        fill: #992c3a;
      }

      .st2 {
        fill: url(#Sfumatura_senza_nome_16);
      }

      .st6 {
        fill: #ce414e;
      }

      .st7 {
        fill: url(#Sfumatura_senza_nome_161);
        mix-blend-mode: overlay;
        opacity: .6;
      }

      .st8 {
        fill: #f5e590;
      }
    </style>
    <radialGradient id="Sfumatura_senza_nome_16" data-name="Sfumatura senza nome 16" cx="1280" cy="720" fx="785.11" fy="720" r="730.18" gradientUnits="userSpaceOnUse">
      <stop offset="0" stop-color="#f5e590"/>
      <stop offset="1" stop-color="#f5e590" stop-opacity="0"/>
    </radialGradient>
    <radialGradient id="Sfumatura_senza_nome_161" data-name="Sfumatura senza nome 16" fx="1280" r="690.44" xlink:href="#Sfumatura_senza_nome_16"/>
  </defs>
  <g class="st0">
    <g id="Livello_1">
      <g class="st3">
        <path class="st4" d="M-1025.77,680.85h0c24.9,0,43.67-6.48,56.31-19.45,12.64-12.96,18.96-31.25,18.96-54.85s-6.32-42.05-18.96-54.95c-12.64-12.9-31.47-19.35-56.5-19.35h-59.98v95.82h39.47v-63.7h20.9c22.83,0,34.25,14.06,34.25,42.18s-11.35,42.18-34.06,42.18h-111.07l33.62-33.62-9.36-9.36c-7.38-7.38-19.34-7.38-26.71,0l-45.52,45.53c-7.46,7.46-7.46,19.57,0,27.03l56.87,56.87c7.38,7.38,19.34,7.38,26.71,0l9.35-9.36-44.96-44.96h110.68Z"/>
        <rect class="st4" x="-771.11" y="532.25" width="39.47" height="148.61"/>
        <polygon class="st4" points="-876.03 707.38 -925.38 855.98 -884.93 855.98 -854.37 751.11 -849.91 733.7 -845.66 751.11 -814.51 855.98 -772.12 855.98 -823.59 707.38 -876.03 707.38"/>
        <polygon class="st4" points="-951.25 707.38 -981.15 808.13 -1011.82 707.38 -1054.77 707.38 -1005.43 855.99 -957.06 855.99 -909.85 707.38 -951.25 707.38"/>
        <path class="st4" d="M-615.98,709.93h0s-56.87-56.87-56.87-56.87c-7.37-7.38-19.34-7.38-26.71,0l-9.35,9.36,44.96,44.96h-89.97v148.61h39.47v-116.48h50.5l-33.62,33.62,9.36,9.36c7.38,7.38,19.34,7.38,26.71,0l45.53-45.53c7.46-7.46,7.46-19.57,0-27.03Z"/>
        <polygon class="st4" points="-871.54 575.98 -867.09 558.56 -862.84 575.98 -831.68 680.85 -789.31 680.85 -840.78 532.25 -893.21 532.25 -942.56 680.85 -902.11 680.85 -871.54 575.98"/>
      </g>
      <rect class="st1" width="2560" height="1440"/>
      <rect class="st2" width="2560" height="1440"/>
      <path class="st7" d="M1970.44,652.66l-535.35,45.61c-10.7.91-13.72-14.3-3.49-17.55l512.06-162.73-51.54-124.43-477.14,247.01c-9.53,4.94-18.15-7.96-9.94-14.88l410.8-346.3-95.23-95.23-346.3,410.8c-6.92,8.21-19.81-.41-14.88-9.94l247.01-477.14-124.43-51.54-162.73,512.06c-3.25,10.23-18.46,7.21-17.55-3.49l45.61-535.35h-134.68l45.61,535.35c.91,10.7-14.3,13.72-17.55,3.49L1077.99,56.35l-124.43,51.54,247.01,477.14c4.94,9.53-7.96,18.15-14.88,9.94l-346.3-410.8-95.23,95.23,410.8,346.3c8.21,6.92-.41,19.81-9.94,14.88l-477.14-247.01-51.54,124.43,512.06,162.73c10.23,3.25,7.21,18.46-3.49,17.55l-535.35-45.61v134.68l535.35-45.61c10.7-.91,13.72,14.3,3.49,17.55l-512.06,162.73,51.54,124.43,477.14-247.01c9.53-4.94,18.15,7.96,9.94,14.88l-410.8,346.3,95.23,95.23,346.3-410.8c6.92-8.21,19.81.41,14.88,9.94l-247.01,477.14,124.43,51.54,162.73-512.06c3.25-10.23,18.46-7.21,17.55,3.49l-45.61,535.35h134.68l-45.61-535.35c-.91-10.7,14.3-13.72,17.55-3.49l162.73,512.06,124.43-51.54-247.01-477.14c-4.94-9.53,7.96-18.15,14.88-9.94l346.3,410.8,95.23-95.23-410.8-346.3c-8.21-6.92.41-19.81,9.94-14.88l477.14,247.01,51.54-124.43-512.06-162.73c-10.23-3.25-7.21-18.46,3.49-17.55l535.35,45.61v-134.68ZM1280,720h0s0,0,0,0h0s0,0,0,0h0s0,0,0,0h0s0,0,0,0h0s0,0,0,0h0s0,0,0,0h0Z"/>
      <g class="st3">
        <path class="st6" d="M-227.55,1251.15S442.07,339.84,652.06,339.84s1351.11,1254.43,1351.11,1254.43l-2321.85,33.29,91.13-376.41Z"/>
        <path class="st6" d="M2918.45,1397.99s-545.18-807.67-957.84-807.67c-462.99,0-1272.88,1150.79-1272.88,1150.79l2321.85,33.29-91.13-376.41Z"/>
        <path class="st4" d="M1355.76,916.34h38.9c67.15,54.69,133.23,129.23,146.72,195.2,16.99,83.04-243.46,118.9-286.87,160.42s9.44,154.04,58.51,183.65h-279.32s-102.63-233.02,101.85-273.25c332.23-65.37,387.48-44.18,220.21-266.02Z"/>
      </g>
      <g class="st3">
        <path class="st5" d="M318.79,1235.1l125.18,12.18-172.57-241.43,103.17,10.04s-113.25-110.35-228.49-306.87c-113.55,196.52-228.49,306.87-228.49,306.87l103.17-10.04-172.57,241.43,125.18-12.18-207.21,289.89,379.92-36.96,379.92,36.96-207.21-289.89Z"/>
        <path class="st5" d="M1009.59,1310.08l92.79,9.03-127.91-178.95,76.47,7.44s-83.94-81.79-169.36-227.45c-84.16,145.66-169.36,227.45-169.36,227.45l76.47-7.44-127.91,178.95,92.79-9.03-153.58,214.86,281.59-27.4,281.59,27.4-153.58-214.86Z"/>
        <path class="st5" d="M1497.08,1410.08l69.74,6.78-96.14-134.5,57.47,5.59s-63.09-61.47-127.29-170.95c-63.26,109.48-127.29,170.95-127.29,170.95l57.47-5.59-96.14,134.5,69.74-6.78-115.43,161.49,211.65-20.59,211.65,20.59-115.43-161.49Z"/>
        <path class="st5" d="M1765.34,1326.58l99.08,9.64-136.59-191.1,81.66,7.94s-89.64-87.34-180.85-242.89c-89.88,155.55-180.85,242.89-180.85,242.89l81.66-7.94-136.59,191.1,99.08-9.64-164,229.45,300.71-29.26,300.71,29.26-164-229.45Z"/>
        <path class="st5" d="M2595.36,1326.58l99.08,9.64-136.59-191.1,81.66,7.94s-89.64-87.34-180.85-242.89c-89.88,155.55-180.85,242.89-180.85,242.89l81.66-7.94-136.59,191.1,99.08-9.64-164,229.45,300.71-29.26,300.71,29.26-164-229.45Z"/>
      </g>
      <g class="st3">
        <path class="st8" d="M1162.83,707.62h0c23.23,0,40.74-6.05,52.54-18.14,11.8-12.1,17.7-29.16,17.7-51.19s-5.9-39.24-17.7-51.28c-11.79-12.04-29.37-18.06-52.72-18.06h-55.97v89.41h36.83v-59.44h19.5c21.31,0,31.96,13.12,31.96,39.36s-10.59,39.36-31.78,39.36h-103.64l31.37-31.37-8.73-8.73c-6.88-6.88-18.04-6.88-24.93,0l-42.48,42.48c-6.97,6.97-6.97,18.26,0,25.22l53.06,53.06c6.88,6.88,18.04,6.88,24.93,0l8.73-8.73-41.96-41.96h103.27Z"/>
        <rect class="st8" x="1400.45" y="568.96" width="36.83" height="138.67"/>
        <polygon class="st8" points="1302.56 732.38 1256.51 871.04 1294.25 871.04 1322.76 773.18 1326.93 756.93 1330.89 773.18 1359.95 871.04 1399.51 871.04 1351.48 732.38 1302.56 732.38"/>
        <polygon class="st8" points="1232.36 732.38 1204.47 826.38 1175.85 732.38 1135.77 732.38 1181.81 871.04 1226.94 871.04 1271 732.38 1232.36 732.38"/>
        <path class="st8" d="M1545.2,734.75h0s-53.06-53.06-53.06-53.06c-6.88-6.88-18.04-6.88-24.93,0l-8.73,8.73,41.96,41.96h-83.96v138.67h36.83v-108.69h47.12l-31.37,31.37,8.73,8.73c6.88,6.88,18.04,6.88,24.93,0l42.48-42.48c6.97-6.97,6.97-18.26,0-25.22Z"/>
        <polygon class="st8" points="1306.74 609.76 1310.89 593.51 1314.87 609.76 1343.94 707.62 1383.47 707.62 1335.45 568.96 1286.52 568.96 1240.48 707.62 1278.21 707.62 1306.74 609.76"/>
      </g>
      <g class="st3">
        <path class="st8" d="M-811.39,206.82h0c23.23,0,40.74-6.05,52.54-18.14,11.8-12.1,17.7-29.16,17.7-51.19s-5.9-39.24-17.7-51.28c-11.79-12.04-29.37-18.06-52.72-18.06h-55.97v89.41h36.83v-59.44h19.5c21.31,0,31.96,13.12,31.96,39.36s-10.59,39.36-31.78,39.36h-103.64l31.37-31.37-8.73-8.73c-6.88-6.88-18.04-6.88-24.93,0l-42.48,42.48c-6.97,6.97-6.97,18.26,0,25.22l53.06,53.06c6.88,6.88,18.04,6.88,24.93,0l8.73-8.73-41.96-41.96h103.27Z"/>
        <rect class="st8" x="-573.77" y="68.15" width="36.83" height="138.67"/>
        <polygon class="st8" points="-671.67 231.57 -717.72 370.23 -679.98 370.23 -651.46 272.37 -647.3 256.13 -643.34 272.37 -614.27 370.23 -574.71 370.23 -622.74 231.57 -671.67 231.57"/>
        <polygon class="st8" points="-741.86 231.57 -769.76 325.57 -798.38 231.57 -838.46 231.57 -792.42 370.24 -747.28 370.24 -703.23 231.57 -741.86 231.57"/>
        <path class="st8" d="M-429.02,233.94h0s-53.06-53.06-53.06-53.06c-6.88-6.88-18.04-6.88-24.93,0l-8.73,8.73,41.96,41.96h-83.96v138.67h36.83v-108.69h47.12l-31.37,31.37,8.73,8.73c6.88,6.88,18.04,6.88,24.93,0l42.48-42.48c6.97-6.97,6.97-18.26,0-25.22Z"/>
        <polygon class="st8" points="-667.49 108.96 -663.33 92.71 -659.36 108.96 -630.29 206.81 -590.75 206.81 -638.78 68.15 -687.71 68.15 -733.75 206.81 -696.01 206.81 -667.49 108.96"/>
      </g>
    </g>
    <g id="Livello_2" class="st3">
      <path d="M1684,1v1438h-808V1h808M1685,0h-810v1440h810V0h0Z"/>
    </g>
  </g>
</svg>